<svg width="137" height="48" viewBox="0 0 137 48" fill="none" xmlns="http://www.w3.org/2000/svg">
<rect y="16" width="32" height="32" rx="16" fill="url(#paint0_linear_12_41)"/>
<rect x="35" y="8" width="32" height="40" rx="16" fill="url(#paint1_linear_12_41)"/>
<rect x="70" width="32" height="48" rx="16" fill="url(#paint2_linear_12_41)"/>
<rect x="105" y="16" width="32" height="32" rx="16" fill="url(#paint3_linear_12_41)"/>
<path d="M24.7383 30.125L21 30.3242C20.9844 29.5898 20.8711 28.875 20.6602 28.1797C20.4492 27.4844 20.1328 26.8672 19.7109 26.3281C19.2969 25.7812 18.7812 25.3438 18.1641 25.0156C17.5547 24.6797 16.8438 24.5117 16.0312 24.5117C15.3203 24.5117 14.6875 24.6289 14.1328 24.8633C13.5781 25.0898 13.0859 25.3984 12.6562 25.7891C12.2344 26.1797 11.8711 26.6406 11.5664 27.1719C11.2695 27.6953 11.0273 28.2539 10.8398 28.8477C10.6523 29.4336 10.5156 30.043 10.4297 30.6758C10.3438 31.3008 10.3008 31.9102 10.3008 32.5039C10.3008 33.1289 10.3359 33.7656 10.4062 34.4141C10.4844 35.0547 10.6094 35.6797 10.7812 36.2891C10.9531 36.8906 11.1797 37.4609 11.4609 38C11.75 38.5312 12.1055 38.9961 12.5273 39.3945C12.957 39.793 13.457 40.1094 14.0273 40.3438C14.6055 40.5703 15.2734 40.6836 16.0312 40.6836C16.8438 40.6836 17.5469 40.5391 18.1406 40.25C18.7422 39.9609 19.2422 39.5703 19.6406 39.0781C20.0391 38.5859 20.3438 38.0117 20.5547 37.3555C20.7656 36.6992 20.8906 36.0039 20.9297 35.2695L24.5977 35.457C24.3008 36.4336 23.8672 37.3164 23.2969 38.1055C22.7344 38.8945 22.0742 39.5664 21.3164 40.1211C20.5664 40.6758 19.7305 41.1016 18.8086 41.3984C17.8945 41.6953 16.9375 41.8438 15.9375 41.8438C14.5547 41.8438 13.3125 41.6094 12.2109 41.1406C11.1172 40.6797 10.1836 40.0352 9.41016 39.207C8.64453 38.3789 8.05469 37.3945 7.64062 36.2539C7.23438 35.1133 7.03125 33.8633 7.03125 32.5039C7.03125 31.1992 7.24609 29.9883 7.67578 28.8711C8.11328 27.7539 8.72266 26.7891 9.50391 25.9766C10.293 25.1562 11.2344 24.5156 12.3281 24.0547C13.4219 23.5938 14.625 23.3633 15.9375 23.3633C16.9844 23.3633 17.9844 23.5195 18.9375 23.832C19.8984 24.1367 20.7656 24.582 21.5391 25.168C22.3203 25.7461 22.9883 26.4531 23.543 27.2891C24.0977 28.125 24.4961 29.0703 24.7383 30.125Z" fill="#1B1B1B"/>
<path d="M60.8047 32.5508C60.8047 33.4492 60.6914 34.3008 60.4648 35.1055C60.2383 35.9023 59.918 36.6406 59.5039 37.3203C59.0898 38 58.5938 38.6094 58.0156 39.1484C57.4375 39.6875 56.7969 40.1445 56.0938 40.5195C55.3906 40.8945 54.6367 41.1836 53.832 41.3867C53.0273 41.5898 52.1914 41.6914 51.3242 41.6914C49.9727 41.6914 48.7266 41.4727 47.5859 41.0352C46.4531 40.6055 45.4727 39.9922 44.6445 39.1953C43.8242 38.3984 43.1836 37.4375 42.7227 36.3125C42.2617 35.1875 42.0312 33.9336 42.0312 32.5508C42.0312 31.668 42.1406 30.8281 42.3594 30.0312C42.5781 29.2344 42.8867 28.5 43.2852 27.8281C43.6836 27.1484 44.1641 26.5352 44.7266 25.9883C45.2891 25.4414 45.9141 24.9805 46.6016 24.6055C47.2969 24.2227 48.0391 23.9297 48.8281 23.7266C49.625 23.5156 50.457 23.4102 51.3242 23.4102C52.1914 23.4102 53.0273 23.5117 53.832 23.7148C54.6445 23.9102 55.4023 24.1953 56.1055 24.5703C56.8086 24.9453 57.4492 25.4023 58.0273 25.9414C58.6055 26.4805 59.0977 27.0898 59.5039 27.7695C59.918 28.4492 60.2383 29.1914 60.4648 29.9961C60.6914 30.793 60.8047 31.6445 60.8047 32.5508ZM57.582 32.5508C57.582 31.9336 57.5273 31.3086 57.418 30.6758C57.3164 30.0352 57.1562 29.4219 56.9375 28.8359C56.7188 28.2422 56.4414 27.6875 56.1055 27.1719C55.7773 26.6484 55.3828 26.1953 54.9219 25.8125C54.4688 25.4219 53.9531 25.1172 53.375 24.8984C52.7969 24.6719 52.1523 24.5586 51.4414 24.5586C50.7305 24.5586 50.0859 24.6719 49.5078 24.8984C48.9297 25.125 48.4141 25.4336 47.9609 25.8242C47.5078 26.207 47.1133 26.6602 46.7773 27.1836C46.4414 27.6992 46.1641 28.2539 45.9453 28.8477C45.7266 29.4414 45.5625 30.0547 45.4531 30.6875C45.3516 31.3203 45.3008 31.9414 45.3008 32.5508C45.3008 33.1992 45.3477 33.8477 45.4414 34.4961C45.5352 35.1445 45.6836 35.7656 45.8867 36.3594C46.0898 36.9453 46.3516 37.4961 46.6719 38.0117C47 38.5195 47.3906 38.9609 47.8438 39.3359C48.2969 39.7109 48.8203 40.0078 49.4141 40.2266C50.0156 40.4375 50.6914 40.543 51.4414 40.543C52.168 40.543 52.8242 40.4336 53.4102 40.2148C53.9961 39.9961 54.5156 39.6953 54.9688 39.3125C55.4297 38.9297 55.8242 38.4844 56.1523 37.9766C56.4805 37.4609 56.75 36.9062 56.9609 36.3125C57.1719 35.7188 57.3281 35.1016 57.4297 34.4609C57.5312 33.8203 57.582 33.1836 57.582 32.5508Z" fill="#1B1B1B"/>
<path d="M94.0859 29.7969C94.0859 30.4531 93.9375 31.0391 93.6406 31.5547C93.3516 32.0703 92.9609 32.5234 92.4688 32.9141C91.9844 33.3047 91.4219 33.6367 90.7812 33.9102C90.1484 34.1836 89.4922 34.4023 88.8125 34.5664L94.0859 40.332L90.418 41.4336L86.5273 34.9766C85.9492 35.0234 85.4141 35.0469 84.9219 35.0469C84.4609 35.0469 84.0039 35.0391 83.5508 35.0234C83.0977 35.0078 82.6406 34.9688 82.1797 34.9062L82.1328 41.1172L79.1094 41.1406C79.125 38.3906 79.1055 35.6172 79.0508 32.8203C78.9961 30.0156 78.9453 27.2383 78.8984 24.4883C79.4531 24.3711 80.0391 24.2773 80.6562 24.207C81.2734 24.1367 81.8984 24.082 82.5312 24.043C83.1641 24.0039 83.793 23.9766 84.418 23.9609C85.043 23.9453 85.6406 23.9375 86.2109 23.9375C86.8359 23.9375 87.4648 23.9883 88.0977 24.0898C88.7305 24.1914 89.3359 24.3477 89.9141 24.5586C90.5 24.7695 91.0469 25.0352 91.5547 25.3555C92.0625 25.6758 92.5039 26.0547 92.8789 26.4922C93.2539 26.9219 93.5469 27.4141 93.7578 27.9688C93.9766 28.5156 94.0859 29.125 94.0859 29.7969ZM84.418 25.1094C84.0195 25.1094 83.6172 25.1172 83.2109 25.1328C82.8125 25.1484 82.4141 25.1797 82.0156 25.2266L82.2031 33.7578C82.5703 33.8047 82.9414 33.832 83.3164 33.8398C83.6914 33.8477 84.0742 33.8516 84.4648 33.8516C84.9883 33.8516 85.5078 33.8125 86.0234 33.7344C86.5469 33.6562 87.043 33.5391 87.5117 33.3828C87.9805 33.2188 88.4141 33.0195 88.8125 32.7852C89.2109 32.543 89.5547 32.2656 89.8438 31.9531C90.1406 31.6328 90.3711 31.2734 90.5352 30.875C90.6992 30.4766 90.7812 30.043 90.7812 29.5742C90.7812 29.0273 90.6914 28.5391 90.5117 28.1094C90.332 27.6719 90.0859 27.2891 89.7734 26.9609C89.4688 26.625 89.1094 26.3438 88.6953 26.1172C88.2812 25.8828 87.8398 25.6914 87.3711 25.543C86.9023 25.3945 86.4141 25.2852 85.9062 25.2148C85.4062 25.1445 84.9102 25.1094 84.418 25.1094Z" fill="#1B1B1B"/>
<path d="M121.301 35.707C120.684 35.707 120.07 35.6289 119.461 35.4727C118.859 35.3086 118.312 35.0508 117.82 34.6992C117.828 35.0039 117.848 35.3164 117.879 35.6367C117.91 35.957 117.961 36.2695 118.031 36.5742C118.109 36.8711 118.207 37.1523 118.324 37.418C118.449 37.6836 118.605 37.918 118.793 38.1211C118.988 38.3164 119.219 38.4727 119.484 38.5898C119.758 38.707 120.082 38.7656 120.457 38.7656C120.809 38.7656 121.137 38.7031 121.441 38.5781C121.746 38.4453 122.012 38.2695 122.238 38.0508C122.473 37.832 122.664 37.5742 122.812 37.2773C122.961 36.9805 123.062 36.6602 123.117 36.3164L126 36.9609C125.773 37.4453 125.453 37.8555 125.039 38.1914C124.633 38.5273 124.18 38.7969 123.68 39C123.18 39.2109 122.656 39.3633 122.109 39.457C121.57 39.5508 121.051 39.5977 120.551 39.5977C119.652 39.5977 118.852 39.4648 118.148 39.1992C117.445 38.9336 116.852 38.5508 116.367 38.0508C115.891 37.5508 115.523 36.9453 115.266 36.2344C115.016 35.5156 114.891 34.7109 114.891 33.8203C114.891 32.9531 115.039 32.1367 115.336 31.3711C115.633 30.5977 116.047 29.9258 116.578 29.3555C117.109 28.7852 117.746 28.3359 118.488 28.0078C119.238 27.6719 120.062 27.5039 120.961 27.5039C121.617 27.5039 122.27 27.5859 122.918 27.75C123.566 27.9062 124.148 28.1562 124.664 28.5C125.18 28.8359 125.594 29.2695 125.906 29.8008C126.227 30.332 126.387 30.9727 126.387 31.7227C126.387 32.457 126.238 33.0781 125.941 33.5859C125.652 34.0859 125.27 34.4961 124.793 34.8164C124.316 35.1289 123.773 35.3555 123.164 35.4961C122.555 35.6367 121.934 35.707 121.301 35.707ZM120.797 28.3711C120.438 28.3711 120.117 28.4453 119.836 28.5938C119.562 28.7344 119.316 28.9297 119.098 29.1797C118.887 29.4297 118.707 29.7148 118.559 30.0352C118.41 30.3555 118.285 30.6914 118.184 31.043C118.082 31.3945 118.004 31.75 117.949 32.1094C117.895 32.4688 117.859 32.8047 117.844 33.1172C118.141 33.625 118.535 34.043 119.027 34.3711C119.52 34.6914 120.09 34.8516 120.738 34.8516C121.152 34.8516 121.523 34.7578 121.852 34.5703C122.18 34.375 122.457 34.125 122.684 33.8203C122.91 33.5156 123.082 33.1758 123.199 32.8008C123.324 32.4258 123.387 32.0508 123.387 31.6758C123.387 31.3008 123.332 30.918 123.223 30.5273C123.113 30.1289 122.949 29.7734 122.73 29.4609C122.52 29.1406 122.25 28.8789 121.922 28.6758C121.602 28.4727 121.227 28.3711 120.797 28.3711Z" fill="#1B1B1B"/>
<defs>
<linearGradient id="paint0_linear_12_41" x1="0" y1="32" x2="32" y2="32" gradientUnits="userSpaceOnUse">
<stop stop-color="#7FFF76"/>
<stop offset="1" stop-color="#0D5408"/>
</linearGradient>
<linearGradient id="paint1_linear_12_41" x1="35" y1="28" x2="67" y2="28" gradientUnits="userSpaceOnUse">
<stop stop-color="#7FFF76"/>
<stop offset="1" stop-color="#0D5408"/>
</linearGradient>
<linearGradient id="paint2_linear_12_41" x1="70" y1="24" x2="102" y2="24" gradientUnits="userSpaceOnUse">
<stop stop-color="#7FFF76"/>
<stop offset="1" stop-color="#0D5408"/>
</linearGradient>
<linearGradient id="paint3_linear_12_41" x1="105" y1="32" x2="137" y2="32" gradientUnits="userSpaceOnUse">
<stop stop-color="#7FFF76"/>
<stop offset="1" stop-color="#0D5408"/>
</linearGradient>
</defs>
</svg>
