<svg width="1707" height="276" viewBox="0 0 1707 276" fill="none" xmlns="http://www.w3.org/2000/svg">
<rect x="105" y="53" width="1473" height="4" fill="#D9D9D9"/>
<circle cx="156.055" cy="55" r="55" fill="#D9D9D9"/>
<circle cx="156.055" cy="55" r="51.7647" fill="#1B1B1B"/>
<circle cx="156.055" cy="55" r="46.9118" fill="#D9D9D9"/>
<path d="M156.92 74V46.24H160.64V74H156.92ZM151.24 49.6V46.24H160.24V49.6H151.24Z" fill="#1B1B1B"/>
<circle cx="841" cy="55" r="55" fill="#D9D9D9"/>
<circle cx="841" cy="55" r="51.7647" fill="#1B1B1B"/>
<circle cx="841" cy="55" r="46.9118" fill="#D9D9D9"/>
<path d="M833.32 71.72L843.56 60.92C844.6 59.8533 845.413 58.9333 846 58.16C846.587 57.36 847 56.6267 847.24 55.96C847.507 55.2933 847.64 54.6 847.64 53.88C847.64 52.4667 847.187 51.36 846.28 50.56C845.373 49.76 844.2 49.36 842.76 49.36C841.347 49.36 840.107 49.7067 839.04 50.4C837.973 51.0667 837.027 52.1067 836.2 53.52L833.56 51.32C834.653 49.5067 835.973 48.1467 837.52 47.24C839.067 46.3067 840.853 45.84 842.88 45.84C844.587 45.84 846.067 46.1733 847.32 46.84C848.6 47.5067 849.587 48.44 850.28 49.64C850.973 50.84 851.32 52.24 851.32 53.84C851.32 54.9867 851.173 56.0133 850.88 56.92C850.613 57.8267 850.12 58.76 849.4 59.72C848.707 60.6533 847.733 61.7733 846.48 63.08L838.2 71.6L833.32 71.72ZM833.32 74V71.72L836.52 70.64H851.96V74H833.32Z" fill="#1B1B1B"/>
<circle cx="1523" cy="55" r="55" fill="#D9D9D9"/>
<circle cx="1523" cy="55" r="51.7647" fill="#1B1B1B"/>
<circle cx="1523" cy="55" r="46.9118" fill="#D9D9D9"/>
<path d="M1523.88 74.4C1522.07 74.4 1520.41 74.0667 1518.92 73.4C1517.45 72.7067 1516.21 71.7067 1515.2 70.4L1517.76 67.84C1518.37 68.7733 1519.21 69.52 1520.28 70.08C1521.35 70.6133 1522.53 70.88 1523.84 70.88C1525.07 70.88 1526.12 70.6533 1527 70.2C1527.91 69.72 1528.61 69.0533 1529.12 68.2C1529.65 67.3467 1529.92 66.36 1529.92 65.24C1529.92 64.0933 1529.65 63.1067 1529.12 62.28C1528.61 61.4267 1527.89 60.7733 1526.96 60.32C1526.03 59.8667 1524.92 59.64 1523.64 59.64C1523.16 59.64 1522.68 59.68 1522.2 59.76C1521.72 59.8133 1521.25 59.9067 1520.8 60.04L1522.4 57.88C1522.91 57.64 1523.45 57.4533 1524.04 57.32C1524.63 57.1867 1525.21 57.12 1525.8 57.12C1527.29 57.12 1528.63 57.4667 1529.8 58.16C1531 58.8533 1531.95 59.8267 1532.64 61.08C1533.36 62.3333 1533.72 63.7867 1533.72 65.44C1533.72 67.2 1533.29 68.76 1532.44 70.12C1531.61 71.4533 1530.47 72.5067 1529 73.28C1527.53 74.0267 1525.83 74.4 1523.88 74.4ZM1520.8 60.04V57.76L1528.92 48.52L1533.4 48.48L1525.04 57.96L1520.8 60.04ZM1516.52 49.6V46.24H1533.4V48.48L1530.12 49.6H1516.52Z" fill="#1B1B1B"/>
<path d="M121.562 186V166.568H124.138V186H121.562ZM116.298 168.92V166.568H123.746V168.92H116.298ZM116.298 186V183.648H128.562V186H116.298ZM134.606 186.28C134.083 186.28 133.644 186.103 133.29 185.748C132.954 185.375 132.786 184.936 132.786 184.432C132.786 183.909 132.954 183.48 133.29 183.144C133.644 182.789 134.083 182.612 134.606 182.612C135.128 182.612 135.558 182.789 135.894 183.144C136.248 183.48 136.426 183.909 136.426 184.432C136.426 184.936 136.248 185.375 135.894 185.748C135.558 186.103 135.128 186.28 134.606 186.28ZM162.308 186L152.508 175.864L162.112 166.568H165.528L155.168 176.536V175.08L165.808 186H162.308ZM150.296 186V166.568H152.928V186H150.296ZM170.216 177.544V175.332H175.48C176.619 175.332 177.496 175.043 178.112 174.464C178.728 173.885 179.036 173.101 179.036 172.112C179.036 171.179 178.728 170.404 178.112 169.788C177.515 169.172 176.647 168.864 175.508 168.864H170.216V166.568H175.592C176.824 166.568 177.898 166.811 178.812 167.296C179.727 167.763 180.427 168.407 180.912 169.228C181.416 170.049 181.668 170.992 181.668 172.056C181.668 173.157 181.416 174.119 180.912 174.94C180.427 175.761 179.727 176.405 178.812 176.872C177.898 177.32 176.824 177.544 175.592 177.544H170.216ZM168.452 186V166.568H171.084V186H168.452ZM179.652 186L172.596 177.292L175.088 176.424L182.984 186H179.652ZM194.253 186.28C192.872 186.28 191.584 186.028 190.389 185.524C189.195 185.001 188.149 184.283 187.253 183.368C186.357 182.435 185.657 181.361 185.153 180.148C184.668 178.935 184.425 177.637 184.425 176.256C184.425 174.856 184.668 173.559 185.153 172.364C185.657 171.151 186.348 170.087 187.225 169.172C188.121 168.257 189.157 167.548 190.333 167.044C191.528 166.54 192.816 166.288 194.197 166.288C195.579 166.288 196.857 166.54 198.033 167.044C199.228 167.548 200.273 168.257 201.169 169.172C202.065 170.087 202.765 171.151 203.269 172.364C203.773 173.577 204.025 174.884 204.025 176.284C204.025 177.665 203.773 178.963 203.269 180.176C202.765 181.389 202.065 182.453 201.169 183.368C200.292 184.283 199.256 185.001 198.061 185.524C196.885 186.028 195.616 186.28 194.253 186.28ZM194.197 183.76C195.597 183.76 196.82 183.443 197.865 182.808C198.929 182.155 199.769 181.268 200.385 180.148C201.001 179.009 201.309 177.712 201.309 176.256C201.309 175.173 201.132 174.184 200.777 173.288C200.423 172.373 199.928 171.58 199.293 170.908C198.659 170.236 197.912 169.723 197.053 169.368C196.195 168.995 195.243 168.808 194.197 168.808C192.816 168.808 191.593 169.125 190.529 169.76C189.484 170.395 188.653 171.272 188.037 172.392C187.44 173.512 187.141 174.8 187.141 176.256C187.141 177.339 187.309 178.347 187.645 179.28C188 180.195 188.485 180.988 189.101 181.66C189.736 182.313 190.483 182.827 191.341 183.2C192.219 183.573 193.171 183.76 194.197 183.76ZM219.648 186L209.848 175.864L219.452 166.568H222.868L212.508 176.536V175.08L223.148 186H219.648ZM207.636 186V166.568H210.268V186H207.636Z" fill="#616161"/>
<path d="M789.458 184.404L796.878 176.844C797.625 176.097 798.213 175.453 798.642 174.912C799.071 174.352 799.379 173.839 799.566 173.372C799.753 172.905 799.846 172.42 799.846 171.916C799.846 170.927 799.51 170.152 798.838 169.592C798.185 169.032 797.326 168.752 796.262 168.752C795.273 168.752 794.377 168.985 793.574 169.452C792.79 169.9 792.09 170.637 791.474 171.664L789.598 170.124C790.382 168.855 791.334 167.903 792.454 167.268C793.574 166.615 794.871 166.288 796.346 166.288C797.578 166.288 798.642 166.521 799.538 166.988C800.453 167.455 801.162 168.108 801.666 168.948C802.17 169.788 802.422 170.768 802.422 171.888C802.422 172.709 802.319 173.437 802.114 174.072C801.909 174.707 801.554 175.351 801.05 176.004C800.546 176.657 799.837 177.441 798.922 178.356L792.902 184.32L789.458 184.404ZM789.458 186V184.404L791.67 183.648H802.898V186H789.458ZM808.606 186.28C808.083 186.28 807.644 186.103 807.29 185.748C806.954 185.375 806.786 184.936 806.786 184.432C806.786 183.909 806.954 183.48 807.29 183.144C807.644 182.789 808.083 182.612 808.606 182.612C809.128 182.612 809.558 182.789 809.894 183.144C810.248 183.48 810.426 183.909 810.426 184.432C810.426 184.936 810.248 185.375 809.894 185.748C809.558 186.103 809.128 186.28 808.606 186.28ZM836.308 186L826.508 175.864L836.112 166.568H839.528L829.168 176.536V175.08L839.808 186H836.308ZM824.296 186V166.568H826.928V186H824.296ZM844.216 177.544V175.332H849.48C850.619 175.332 851.496 175.043 852.112 174.464C852.728 173.885 853.036 173.101 853.036 172.112C853.036 171.179 852.728 170.404 852.112 169.788C851.515 169.172 850.647 168.864 849.508 168.864H844.216V166.568H849.592C850.824 166.568 851.898 166.811 852.812 167.296C853.727 167.763 854.427 168.407 854.912 169.228C855.416 170.049 855.668 170.992 855.668 172.056C855.668 173.157 855.416 174.119 854.912 174.94C854.427 175.761 853.727 176.405 852.812 176.872C851.898 177.32 850.824 177.544 849.592 177.544H844.216ZM842.452 186V166.568H845.084V186H842.452ZM853.652 186L846.596 177.292L849.088 176.424L856.984 186H853.652ZM868.253 186.28C866.872 186.28 865.584 186.028 864.389 185.524C863.195 185.001 862.149 184.283 861.253 183.368C860.357 182.435 859.657 181.361 859.153 180.148C858.668 178.935 858.425 177.637 858.425 176.256C858.425 174.856 858.668 173.559 859.153 172.364C859.657 171.151 860.348 170.087 861.225 169.172C862.121 168.257 863.157 167.548 864.333 167.044C865.528 166.54 866.816 166.288 868.197 166.288C869.579 166.288 870.857 166.54 872.033 167.044C873.228 167.548 874.273 168.257 875.169 169.172C876.065 170.087 876.765 171.151 877.269 172.364C877.773 173.577 878.025 174.884 878.025 176.284C878.025 177.665 877.773 178.963 877.269 180.176C876.765 181.389 876.065 182.453 875.169 183.368C874.292 184.283 873.256 185.001 872.061 185.524C870.885 186.028 869.616 186.28 868.253 186.28ZM868.197 183.76C869.597 183.76 870.82 183.443 871.865 182.808C872.929 182.155 873.769 181.268 874.385 180.148C875.001 179.009 875.309 177.712 875.309 176.256C875.309 175.173 875.132 174.184 874.777 173.288C874.423 172.373 873.928 171.58 873.293 170.908C872.659 170.236 871.912 169.723 871.053 169.368C870.195 168.995 869.243 168.808 868.197 168.808C866.816 168.808 865.593 169.125 864.529 169.76C863.484 170.395 862.653 171.272 862.037 172.392C861.44 173.512 861.141 174.8 861.141 176.256C861.141 177.339 861.309 178.347 861.645 179.28C862 180.195 862.485 180.988 863.101 181.66C863.736 182.313 864.483 182.827 865.341 183.2C866.219 183.573 867.171 183.76 868.197 183.76ZM893.648 186L883.848 175.864L893.452 166.568H896.868L886.508 176.536V175.08L897.148 186H893.648ZM881.636 186V166.568H884.268V186H881.636Z" fill="#616161"/>
<path d="M1470.67 186.28C1469.35 186.28 1468.15 186.047 1467.09 185.58C1466.03 185.095 1465.12 184.395 1464.37 183.48L1466.17 181.688C1466.63 182.341 1467.26 182.864 1468.04 183.256C1468.83 183.629 1469.68 183.816 1470.62 183.816C1471.51 183.816 1472.3 183.657 1472.97 183.34C1473.64 183.004 1474.16 182.537 1474.54 181.94C1474.91 181.343 1475.1 180.652 1475.1 179.868C1475.1 179.065 1474.91 178.375 1474.54 177.796C1474.16 177.199 1473.63 176.741 1472.94 176.424C1472.25 176.107 1471.43 175.948 1470.48 175.948C1470.14 175.948 1469.8 175.976 1469.44 176.032C1469.11 176.069 1468.78 176.135 1468.46 176.228L1469.55 174.716C1469.91 174.548 1470.29 174.417 1470.7 174.324C1471.13 174.231 1471.57 174.184 1472.02 174.184C1473.1 174.184 1474.07 174.427 1474.93 174.912C1475.81 175.397 1476.5 176.079 1477 176.956C1477.51 177.833 1477.76 178.851 1477.76 180.008C1477.76 181.24 1477.46 182.332 1476.86 183.284C1476.26 184.217 1475.43 184.955 1474.37 185.496C1473.31 186.019 1472.07 186.28 1470.67 186.28ZM1468.46 176.228V174.632L1474.37 168.164L1477.53 168.136L1471.4 174.772L1468.46 176.228ZM1465.33 168.92V166.568H1477.53V168.136L1475.24 168.92H1465.33ZM1483.61 186.28C1483.08 186.28 1482.64 186.103 1482.29 185.748C1481.95 185.375 1481.79 184.936 1481.79 184.432C1481.79 183.909 1481.95 183.48 1482.29 183.144C1482.64 182.789 1483.08 182.612 1483.61 182.612C1484.13 182.612 1484.56 182.789 1484.89 183.144C1485.25 183.48 1485.43 183.909 1485.43 184.432C1485.43 184.936 1485.25 185.375 1484.89 185.748C1484.56 186.103 1484.13 186.28 1483.61 186.28ZM1511.31 186L1501.51 175.864L1511.11 166.568H1514.53L1504.17 176.536V175.08L1514.81 186H1511.31ZM1499.3 186V166.568H1501.93V186H1499.3ZM1519.22 177.544V175.332H1524.48C1525.62 175.332 1526.5 175.043 1527.11 174.464C1527.73 173.885 1528.04 173.101 1528.04 172.112C1528.04 171.179 1527.73 170.404 1527.11 169.788C1526.51 169.172 1525.65 168.864 1524.51 168.864H1519.22V166.568H1524.59C1525.82 166.568 1526.9 166.811 1527.81 167.296C1528.73 167.763 1529.43 168.407 1529.91 169.228C1530.42 170.049 1530.67 170.992 1530.67 172.056C1530.67 173.157 1530.42 174.119 1529.91 174.94C1529.43 175.761 1528.73 176.405 1527.81 176.872C1526.9 177.32 1525.82 177.544 1524.59 177.544H1519.22ZM1517.45 186V166.568H1520.08V186H1517.45ZM1528.65 186L1521.6 177.292L1524.09 176.424L1531.98 186H1528.65ZM1543.25 186.28C1541.87 186.28 1540.58 186.028 1539.39 185.524C1538.19 185.001 1537.15 184.283 1536.25 183.368C1535.36 182.435 1534.66 181.361 1534.15 180.148C1533.67 178.935 1533.43 177.637 1533.43 176.256C1533.43 174.856 1533.67 173.559 1534.15 172.364C1534.66 171.151 1535.35 170.087 1536.23 169.172C1537.12 168.257 1538.16 167.548 1539.33 167.044C1540.53 166.54 1541.82 166.288 1543.2 166.288C1544.58 166.288 1545.86 166.54 1547.03 167.044C1548.23 167.548 1549.27 168.257 1550.17 169.172C1551.07 170.087 1551.77 171.151 1552.27 172.364C1552.77 173.577 1553.03 174.884 1553.03 176.284C1553.03 177.665 1552.77 178.963 1552.27 180.176C1551.77 181.389 1551.07 182.453 1550.17 183.368C1549.29 184.283 1548.26 185.001 1547.06 185.524C1545.89 186.028 1544.62 186.28 1543.25 186.28ZM1543.2 183.76C1544.6 183.76 1545.82 183.443 1546.87 182.808C1547.93 182.155 1548.77 181.268 1549.39 180.148C1550 179.009 1550.31 177.712 1550.31 176.256C1550.31 175.173 1550.13 174.184 1549.78 173.288C1549.42 172.373 1548.93 171.58 1548.29 170.908C1547.66 170.236 1546.91 169.723 1546.05 169.368C1545.19 168.995 1544.24 168.808 1543.2 168.808C1541.82 168.808 1540.59 169.125 1539.53 169.76C1538.48 170.395 1537.65 171.272 1537.04 172.392C1536.44 173.512 1536.14 174.8 1536.14 176.256C1536.14 177.339 1536.31 178.347 1536.65 179.28C1537 180.195 1537.49 180.988 1538.1 181.66C1538.74 182.313 1539.48 182.827 1540.34 183.2C1541.22 183.573 1542.17 183.76 1543.2 183.76ZM1568.65 186L1558.85 175.864L1568.45 166.568H1571.87L1561.51 176.536V175.08L1572.15 186H1568.65ZM1556.64 186V166.568H1559.27V186H1556.64Z" fill="#616161"/>
<path d="M14.832 264L1.488 230.688H6.384L17.376 258.864H15.6L26.688 230.688H31.536L18.096 264H14.832ZM40.6091 264.192L30.7211 241.2H35.5211L42.8651 259.2H41.3291L49.0571 241.2H53.8571L43.2011 264.192H40.6091ZM34.0811 273.552L40.8011 259.776L43.2011 264.192L38.8811 273.552H34.0811ZM69.2149 264.48C67.4869 264.48 65.9189 264.128 64.5109 263.424C63.1349 262.688 62.0309 261.68 61.1989 260.4C60.3669 259.12 59.9029 257.664 59.8069 256.032V249.168C59.9029 247.504 60.3669 246.048 61.1989 244.8C62.0629 243.52 63.1829 242.528 64.5589 241.824C65.9669 241.088 67.5189 240.72 69.2149 240.72C71.2949 240.72 73.1669 241.248 74.8309 242.304C76.5269 243.36 77.8549 244.784 78.8149 246.576C79.7749 248.368 80.2549 250.384 80.2549 252.624C80.2549 254.864 79.7749 256.88 78.8149 258.672C77.8549 260.464 76.5269 261.888 74.8309 262.944C73.1669 263.968 71.2949 264.48 69.2149 264.48ZM57.2149 273.552V241.2H61.5349V247.2L60.7189 252.72L61.5349 258.288V273.552H57.2149ZM68.4949 260.4C69.9349 260.4 71.1989 260.064 72.2869 259.392C73.3749 258.72 74.2389 257.808 74.8789 256.656C75.5189 255.472 75.8389 254.112 75.8389 252.576C75.8389 251.072 75.5189 249.728 74.8789 248.544C74.2389 247.36 73.3749 246.448 72.2869 245.808C71.1989 245.136 69.9509 244.8 68.5429 244.8C67.1029 244.8 65.8389 245.136 64.7509 245.808C63.6629 246.448 62.8149 247.36 62.2069 248.544C61.5989 249.728 61.2949 251.088 61.2949 252.624C61.2949 254.128 61.5829 255.472 62.1589 256.656C62.7669 257.808 63.6149 258.72 64.7029 259.392C65.8229 260.064 67.0869 260.4 68.4949 260.4ZM85.1524 264V229.728H89.4724V264H85.1524ZM111.921 264V250.704C111.921 248.976 111.377 247.552 110.289 246.432C109.201 245.312 107.793 244.752 106.065 244.752C104.913 244.752 103.889 245.008 102.993 245.52C102.097 246.032 101.393 246.736 100.881 247.632C100.369 248.528 100.113 249.552 100.113 250.704L98.337 249.696C98.337 247.968 98.721 246.432 99.489 245.088C100.257 243.744 101.329 242.688 102.705 241.92C104.081 241.12 105.617 240.72 107.313 240.72C109.073 240.72 110.609 241.152 111.921 242.016C113.265 242.88 114.321 244.016 115.089 245.424C115.857 246.8 116.241 248.272 116.241 249.84V264H111.921ZM95.793 264V241.2H100.113V264H95.793ZM112.017 228.48L113.985 230.448L107.457 237.84H104.097L97.569 230.448L99.537 228.48L107.217 234.912L104.289 234.864L112.017 228.48ZM141.722 264.48C139.61 264.48 137.722 263.968 136.058 262.944C134.394 261.888 133.066 260.464 132.074 258.672C131.114 256.88 130.634 254.864 130.634 252.624C130.634 250.384 131.114 248.368 132.074 246.576C133.066 244.784 134.394 243.36 136.058 242.304C137.722 241.248 139.61 240.72 141.722 240.72C143.418 240.72 144.954 241.088 146.33 241.824C147.706 242.528 148.81 243.52 149.642 244.8C150.506 246.048 150.986 247.504 151.082 249.168V256.032C150.986 257.664 150.522 259.12 149.69 260.4C148.858 261.68 147.754 262.688 146.378 263.424C145.002 264.128 143.45 264.48 141.722 264.48ZM142.442 260.4C143.882 260.4 145.13 260.064 146.186 259.392C147.274 258.72 148.122 257.808 148.73 256.656C149.338 255.472 149.642 254.128 149.642 252.624C149.642 251.056 149.322 249.696 148.682 248.544C148.074 247.392 147.226 246.48 146.138 245.808C145.082 245.136 143.834 244.8 142.394 244.8C140.954 244.8 139.69 245.136 138.602 245.808C137.514 246.48 136.65 247.408 136.01 248.592C135.402 249.744 135.098 251.072 135.098 252.576C135.098 254.112 135.402 255.472 136.01 256.656C136.65 257.808 137.514 258.72 138.602 259.392C139.722 260.064 141.002 260.4 142.442 260.4ZM153.722 264H149.354V257.856L150.17 252.288L149.354 246.768V229.728H153.722V264ZM170.428 264.48C168.188 264.48 166.172 263.952 164.38 262.896C162.588 261.84 161.164 260.416 160.108 258.624C159.052 256.8 158.524 254.768 158.524 252.528C158.524 250.32 159.052 248.336 160.108 246.576C161.164 244.784 162.588 243.36 164.38 242.304C166.172 241.248 168.188 240.72 170.428 240.72C172.636 240.72 174.636 241.248 176.428 242.304C178.252 243.328 179.692 244.736 180.748 246.528C181.804 248.32 182.332 250.32 182.332 252.528C182.332 254.768 181.804 256.8 180.748 258.624C179.692 260.416 178.252 261.84 176.428 262.896C174.636 263.952 172.636 264.48 170.428 264.48ZM170.428 260.304C171.868 260.304 173.148 259.968 174.268 259.296C175.388 258.624 176.268 257.712 176.908 256.56C177.548 255.376 177.868 254.032 177.868 252.528C177.868 251.056 177.532 249.744 176.86 248.592C176.22 247.44 175.34 246.544 174.22 245.904C173.132 245.232 171.868 244.896 170.428 244.896C168.988 244.896 167.708 245.232 166.588 245.904C165.468 246.544 164.588 247.44 163.948 248.592C163.308 249.744 162.988 251.056 162.988 252.528C162.988 254.032 163.308 255.376 163.948 256.56C164.588 257.712 165.468 258.624 166.588 259.296C167.708 259.968 168.988 260.304 170.428 260.304ZM190 264V231.648H194.32V264H190ZM184.384 245.136V241.2H199.936V245.136H184.384ZM213.161 264.48C211.081 264.48 209.193 263.968 207.497 262.944C205.801 261.888 204.457 260.464 203.465 258.672C202.505 256.88 202.025 254.864 202.025 252.624C202.025 250.384 202.505 248.368 203.465 246.576C204.457 244.784 205.785 243.36 207.449 242.304C209.145 241.248 211.049 240.72 213.161 240.72C214.889 240.72 216.425 241.088 217.769 241.824C219.145 242.528 220.249 243.52 221.081 244.8C221.913 246.048 222.377 247.504 222.473 249.168V256.032C222.377 257.664 221.913 259.12 221.081 260.4C220.281 261.68 219.193 262.688 217.817 263.424C216.473 264.128 214.921 264.48 213.161 264.48ZM213.881 260.4C216.025 260.4 217.753 259.68 219.065 258.24C220.377 256.768 221.033 254.896 221.033 252.624C221.033 251.056 220.729 249.696 220.121 248.544C219.545 247.36 218.713 246.448 217.625 245.808C216.537 245.136 215.273 244.8 213.833 244.8C212.393 244.8 211.113 245.136 209.993 245.808C208.905 246.48 208.041 247.408 207.401 248.592C206.793 249.744 206.489 251.072 206.489 252.576C206.489 254.112 206.793 255.472 207.401 256.656C208.041 257.808 208.921 258.72 210.041 259.392C211.161 260.064 212.441 260.4 213.881 260.4ZM220.745 264V257.856L221.561 252.288L220.745 246.768V241.2H225.113V264H220.745ZM229.578 261.648L243.114 243.552H248.202L234.666 261.648H229.578ZM229.578 264V261.648L233.418 260.064H247.914V264H229.578ZM230.394 245.136V241.2H248.202V243.552L244.218 245.136H230.394ZM268.999 264V250.704C268.999 248.976 268.455 247.552 267.367 246.432C266.279 245.312 264.871 244.752 263.143 244.752C261.991 244.752 260.967 245.008 260.071 245.52C259.175 246.032 258.471 246.736 257.959 247.632C257.447 248.528 257.191 249.552 257.191 250.704L255.415 249.696C255.415 247.968 255.799 246.432 256.567 245.088C257.335 243.744 258.407 242.688 259.783 241.92C261.159 241.12 262.711 240.72 264.439 240.72C266.167 240.72 267.687 241.152 268.999 242.016C270.343 242.88 271.399 244.016 272.167 245.424C272.935 246.8 273.319 248.272 273.319 249.84V264H268.999ZM252.871 264V241.2H257.191V264H252.871ZM279.168 264V241.2H283.488V264H279.168ZM278.448 237.792L276.48 235.824L282.72 228.096L286.128 231.504L278.448 237.792ZM304.401 264L293.745 252.336L304.305 241.2H309.537L297.777 253.488L297.969 250.992L309.969 264H304.401ZM289.809 264V229.728H294.129V264H289.809Z" fill="white"/>
<path d="M715.488 264L729.12 230.688H732.384L745.968 264H741.072L729.888 235.824H731.568L720.288 264H715.488ZM721.968 256.464V252.528H739.488V256.464H721.968ZM766.718 264V250.704C766.718 248.976 766.174 247.552 765.086 246.432C763.998 245.312 762.59 244.752 760.862 244.752C759.71 244.752 758.686 245.008 757.79 245.52C756.894 246.032 756.19 246.736 755.678 247.632C755.166 248.528 754.91 249.552 754.91 250.704L753.134 249.696C753.134 247.968 753.518 246.432 754.286 245.088C755.054 243.744 756.126 242.688 757.502 241.92C758.878 241.12 760.43 240.72 762.158 240.72C763.886 240.72 765.406 241.152 766.718 242.016C768.062 242.88 769.118 244.016 769.886 245.424C770.654 246.8 771.038 248.272 771.038 249.84V264H766.718ZM750.59 264V241.2H754.91V264H750.59ZM786.583 264.48C784.503 264.48 782.615 263.968 780.919 262.944C779.223 261.888 777.879 260.464 776.887 258.672C775.927 256.88 775.447 254.864 775.447 252.624C775.447 250.384 775.927 248.368 776.887 246.576C777.879 244.784 779.207 243.36 780.871 242.304C782.567 241.248 784.471 240.72 786.583 240.72C788.311 240.72 789.847 241.088 791.191 241.824C792.567 242.528 793.671 243.52 794.503 244.8C795.335 246.048 795.799 247.504 795.895 249.168V256.032C795.799 257.664 795.335 259.12 794.503 260.4C793.703 261.68 792.615 262.688 791.239 263.424C789.895 264.128 788.343 264.48 786.583 264.48ZM787.303 260.4C789.447 260.4 791.175 259.68 792.487 258.24C793.799 256.768 794.455 254.896 794.455 252.624C794.455 251.056 794.151 249.696 793.543 248.544C792.967 247.36 792.135 246.448 791.047 245.808C789.959 245.136 788.695 244.8 787.255 244.8C785.815 244.8 784.535 245.136 783.415 245.808C782.327 246.48 781.463 247.408 780.823 248.592C780.215 249.744 779.911 251.072 779.911 252.576C779.911 254.112 780.215 255.472 780.823 256.656C781.463 257.808 782.343 258.72 783.463 259.392C784.583 260.064 785.863 260.4 787.303 260.4ZM794.167 264V257.856L794.983 252.288L794.167 246.768V241.2H798.535V264H794.167ZM804.824 264V229.728H809.144V264H804.824ZM822.953 264.192L813.065 241.2H817.865L825.209 259.2H823.673L831.401 241.2H836.201L825.545 264.192H822.953ZM816.425 273.552L823.145 259.776L825.545 264.192L821.225 273.552H816.425ZM821.753 237.792L819.785 235.824L826.025 228.096L829.433 231.504L821.753 237.792ZM838.297 261.648L851.833 243.552H856.921L843.385 261.648H838.297ZM838.297 264V261.648L842.137 260.064H856.633V264H838.297ZM839.113 245.136V241.2H856.921V243.552L852.937 245.136H839.113ZM870.864 264.48C868.784 264.48 866.896 263.968 865.2 262.944C863.504 261.888 862.16 260.464 861.168 258.672C860.208 256.88 859.728 254.864 859.728 252.624C859.728 250.384 860.208 248.368 861.168 246.576C862.16 244.784 863.488 243.36 865.152 242.304C866.848 241.248 868.752 240.72 870.864 240.72C872.592 240.72 874.128 241.088 875.472 241.824C876.848 242.528 877.952 243.52 878.784 244.8C879.616 246.048 880.08 247.504 880.176 249.168V256.032C880.08 257.664 879.616 259.12 878.784 260.4C877.984 261.68 876.896 262.688 875.52 263.424C874.176 264.128 872.624 264.48 870.864 264.48ZM871.584 260.4C873.728 260.4 875.456 259.68 876.768 258.24C878.08 256.768 878.736 254.896 878.736 252.624C878.736 251.056 878.432 249.696 877.824 248.544C877.248 247.36 876.416 246.448 875.328 245.808C874.24 245.136 872.976 244.8 871.536 244.8C870.096 244.8 868.816 245.136 867.696 245.808C866.608 246.48 865.744 247.408 865.104 248.592C864.496 249.744 864.192 251.072 864.192 252.576C864.192 254.112 864.496 255.472 865.104 256.656C865.744 257.808 866.624 258.72 867.744 259.392C868.864 260.064 870.144 260.4 871.584 260.4ZM878.448 264V257.856L879.264 252.288L878.448 246.768V241.2H882.816V264H878.448ZM908.738 264.48C906.626 264.48 904.738 263.968 903.074 262.944C901.41 261.888 900.082 260.464 899.09 258.672C898.13 256.88 897.65 254.864 897.65 252.624C897.65 250.384 898.13 248.368 899.09 246.576C900.082 244.784 901.41 243.36 903.074 242.304C904.738 241.248 906.626 240.72 908.738 240.72C910.434 240.72 911.97 241.088 913.346 241.824C914.722 242.528 915.826 243.52 916.658 244.8C917.522 246.048 918.002 247.504 918.098 249.168V256.032C918.002 257.664 917.538 259.12 916.706 260.4C915.874 261.68 914.77 262.688 913.394 263.424C912.018 264.128 910.466 264.48 908.738 264.48ZM909.458 260.4C910.898 260.4 912.146 260.064 913.202 259.392C914.29 258.72 915.138 257.808 915.746 256.656C916.354 255.472 916.658 254.128 916.658 252.624C916.658 251.056 916.338 249.696 915.698 248.544C915.09 247.392 914.242 246.48 913.154 245.808C912.098 245.136 910.85 244.8 909.41 244.8C907.97 244.8 906.706 245.136 905.618 245.808C904.53 246.48 903.666 247.408 903.026 248.592C902.418 249.744 902.114 251.072 902.114 252.576C902.114 254.112 902.418 255.472 903.026 256.656C903.666 257.808 904.53 258.72 905.618 259.392C906.738 260.064 908.018 260.4 909.458 260.4ZM920.738 264H916.37V257.856L917.186 252.288L916.37 246.768V229.728H920.738V264ZM936.723 264.48C934.643 264.48 932.755 263.968 931.059 262.944C929.363 261.888 928.019 260.464 927.027 258.672C926.067 256.88 925.587 254.864 925.587 252.624C925.587 250.384 926.067 248.368 927.027 246.576C928.019 244.784 929.347 243.36 931.011 242.304C932.707 241.248 934.611 240.72 936.723 240.72C938.451 240.72 939.987 241.088 941.331 241.824C942.707 242.528 943.811 243.52 944.643 244.8C945.475 246.048 945.939 247.504 946.035 249.168V256.032C945.939 257.664 945.475 259.12 944.643 260.4C943.843 261.68 942.755 262.688 941.379 263.424C940.035 264.128 938.483 264.48 936.723 264.48ZM937.443 260.4C939.587 260.4 941.315 259.68 942.627 258.24C943.939 256.768 944.595 254.896 944.595 252.624C944.595 251.056 944.291 249.696 943.683 248.544C943.107 247.36 942.275 246.448 941.187 245.808C940.099 245.136 938.835 244.8 937.395 244.8C935.955 244.8 934.675 245.136 933.555 245.808C932.467 246.48 931.603 247.408 930.963 248.592C930.355 249.744 930.051 251.072 930.051 252.576C930.051 254.112 930.355 255.472 930.963 256.656C931.603 257.808 932.483 258.72 933.603 259.392C934.723 260.064 936.003 260.4 937.443 260.4ZM944.307 264V257.856L945.123 252.288L944.307 246.768V241.2H948.675V264H944.307ZM958.375 264V231.648H962.695V264H958.375ZM952.759 245.136V241.2H968.311V245.136H952.759Z" fill="white"/>
<path d="M1339.87 260.88L1358.69 233.76H1363.97L1345.15 260.88H1339.87ZM1339.87 264V260.88L1343.71 259.872H1363.63V264H1339.87ZM1340.88 234.816V230.688H1363.97V233.76L1360.08 234.816H1340.88ZM1369.15 264V241.2H1373.47V264H1369.15ZM1368.43 237.792L1366.46 235.824L1372.7 228.096L1376.11 231.504L1368.43 237.792ZM1387.04 264.48C1385.76 264.48 1384.55 264.32 1383.39 264C1382.27 263.648 1381.23 263.168 1380.27 262.56C1379.31 261.92 1378.48 261.168 1377.78 260.304L1380.56 257.52C1381.39 258.544 1382.35 259.312 1383.44 259.824C1384.53 260.304 1385.75 260.544 1387.09 260.544C1388.43 260.544 1389.47 260.32 1390.21 259.872C1390.95 259.392 1391.31 258.736 1391.31 257.904C1391.31 257.072 1391.01 256.432 1390.4 255.984C1389.83 255.504 1389.07 255.12 1388.15 254.832C1387.22 254.512 1386.23 254.208 1385.17 253.92C1384.15 253.6 1383.17 253.2 1382.24 252.72C1381.31 252.24 1380.55 251.584 1379.94 250.752C1379.36 249.92 1379.07 248.816 1379.07 247.44C1379.07 246.064 1379.41 244.88 1380.08 243.888C1380.75 242.864 1381.68 242.08 1382.87 241.536C1384.08 240.992 1385.54 240.72 1387.23 240.72C1389.03 240.72 1390.61 241.04 1391.99 241.68C1393.39 242.288 1394.55 243.216 1395.44 244.464L1392.66 247.248C1392.02 246.416 1391.22 245.776 1390.26 245.328C1389.33 244.88 1388.27 244.656 1387.09 244.656C1385.84 244.656 1384.88 244.88 1384.21 245.328C1383.57 245.744 1383.25 246.336 1383.25 247.104C1383.25 247.872 1383.54 248.464 1384.11 248.88C1384.69 249.296 1385.44 249.648 1386.37 249.936C1387.33 250.224 1388.32 250.528 1389.35 250.848C1390.37 251.136 1391.35 251.536 1392.27 252.048C1393.2 252.56 1393.95 253.248 1394.53 254.112C1395.14 254.976 1395.44 256.112 1395.44 257.52C1395.44 259.664 1394.67 261.36 1393.14 262.608C1391.63 263.856 1389.6 264.48 1387.04 264.48ZM1414.87 264L1404.21 252.336L1414.77 241.2H1420.01L1408.25 253.488L1408.44 250.992L1420.44 264H1414.87ZM1400.28 264V229.728H1404.6V264H1400.28ZM1433.43 264.48C1431.16 264.48 1429.11 263.968 1427.29 262.944C1425.46 261.888 1424.02 260.464 1422.97 258.672C1421.91 256.88 1421.38 254.848 1421.38 252.576C1421.38 250.336 1421.9 248.32 1422.92 246.528C1423.98 244.736 1425.38 243.328 1427.14 242.304C1428.94 241.248 1430.94 240.72 1433.14 240.72C1435.26 240.72 1437.11 241.2 1438.71 242.16C1440.34 243.12 1441.61 244.448 1442.5 246.144C1443.43 247.84 1443.9 249.76 1443.9 251.904C1443.9 252.224 1443.88 252.576 1443.85 252.96C1443.82 253.312 1443.75 253.728 1443.66 254.208H1424.41V250.608H1441.35L1439.77 252C1439.77 250.464 1439.5 249.168 1438.95 248.112C1438.41 247.024 1437.64 246.192 1436.65 245.616C1435.66 245.008 1434.46 244.704 1433.05 244.704C1431.58 244.704 1430.28 245.024 1429.16 245.664C1428.04 246.304 1427.18 247.2 1426.57 248.352C1425.96 249.504 1425.66 250.864 1425.66 252.432C1425.66 254.032 1425.98 255.44 1426.62 256.656C1427.26 257.84 1428.17 258.768 1429.35 259.44C1430.54 260.08 1431.9 260.4 1433.43 260.4C1434.71 260.4 1435.88 260.176 1436.94 259.728C1438.02 259.28 1438.95 258.608 1439.72 257.712L1442.5 260.544C1441.42 261.824 1440.07 262.8 1438.47 263.472C1436.9 264.144 1435.22 264.48 1433.43 264.48ZM1445.73 274.032C1444.25 274.032 1443.02 273.792 1442.03 273.312C1441.01 272.832 1440.09 272.144 1439.29 271.248L1442.08 268.416C1442.53 268.96 1443.02 269.36 1443.57 269.616C1444.08 269.872 1444.7 270 1445.44 270C1446.4 270 1447.23 269.696 1447.93 269.088C1448.64 268.512 1448.99 267.632 1448.99 266.448V241.2H1453.31V266.4C1453.31 268.064 1452.96 269.456 1452.25 270.576C1451.55 271.696 1450.62 272.544 1449.47 273.12C1448.32 273.728 1447.07 274.032 1445.73 274.032ZM1451.2 236.64C1450.43 236.64 1449.79 236.384 1449.28 235.872C1448.77 235.328 1448.51 234.656 1448.51 233.856C1448.51 233.088 1448.77 232.448 1449.28 231.936C1449.79 231.392 1450.43 231.12 1451.2 231.12C1452 231.12 1452.65 231.392 1453.17 231.936C1453.68 232.448 1453.93 233.088 1453.93 233.856C1453.93 234.656 1453.68 235.328 1453.17 235.872C1452.65 236.384 1452 236.64 1451.2 236.64ZM1479.3 264.48C1477.19 264.48 1475.3 263.968 1473.64 262.944C1471.97 261.888 1470.64 260.464 1469.65 258.672C1468.69 256.88 1468.21 254.864 1468.21 252.624C1468.21 250.384 1468.69 248.368 1469.65 246.576C1470.64 244.784 1471.97 243.36 1473.64 242.304C1475.3 241.248 1477.19 240.72 1479.3 240.72C1481 240.72 1482.53 241.088 1483.91 241.824C1485.28 242.528 1486.39 243.52 1487.22 244.8C1488.08 246.048 1488.56 247.504 1488.66 249.168V256.032C1488.56 257.664 1488.1 259.12 1487.27 260.4C1486.44 261.68 1485.33 262.688 1483.96 263.424C1482.58 264.128 1481.03 264.48 1479.3 264.48ZM1480.02 260.4C1481.46 260.4 1482.71 260.064 1483.76 259.392C1484.85 258.72 1485.7 257.808 1486.31 256.656C1486.92 255.472 1487.22 254.128 1487.22 252.624C1487.22 251.056 1486.9 249.696 1486.26 248.544C1485.65 247.392 1484.8 246.48 1483.72 245.808C1482.66 245.136 1481.41 244.8 1479.97 244.8C1478.53 244.8 1477.27 245.136 1476.18 245.808C1475.09 246.48 1474.23 247.408 1473.59 248.592C1472.98 249.744 1472.68 251.072 1472.68 252.576C1472.68 254.112 1472.98 255.472 1473.59 256.656C1474.23 257.808 1475.09 258.72 1476.18 259.392C1477.3 260.064 1478.58 260.4 1480.02 260.4ZM1491.3 264H1486.93V257.856L1487.75 252.288L1486.93 246.768V229.728H1491.3V264ZM1508.01 264.48C1505.77 264.48 1503.75 263.952 1501.96 262.896C1500.17 261.84 1498.74 260.416 1497.69 258.624C1496.63 256.8 1496.1 254.768 1496.1 252.528C1496.1 250.32 1496.63 248.336 1497.69 246.576C1498.74 244.784 1500.17 243.36 1501.96 242.304C1503.75 241.248 1505.77 240.72 1508.01 240.72C1510.21 240.72 1512.21 241.248 1514.01 242.304C1515.83 243.328 1517.27 244.736 1518.33 246.528C1519.38 248.32 1519.91 250.32 1519.91 252.528C1519.91 254.768 1519.38 256.8 1518.33 258.624C1517.27 260.416 1515.83 261.84 1514.01 262.896C1512.21 263.952 1510.21 264.48 1508.01 264.48ZM1508.01 260.304C1509.45 260.304 1510.73 259.968 1511.85 259.296C1512.97 258.624 1513.85 257.712 1514.49 256.56C1515.13 255.376 1515.45 254.032 1515.45 252.528C1515.45 251.056 1515.11 249.744 1514.44 248.592C1513.8 247.44 1512.92 246.544 1511.8 245.904C1510.71 245.232 1509.45 244.896 1508.01 244.896C1506.57 244.896 1505.29 245.232 1504.17 245.904C1503.05 246.544 1502.17 247.44 1501.53 248.592C1500.89 249.744 1500.57 251.056 1500.57 252.528C1500.57 254.032 1500.89 255.376 1501.53 256.56C1502.17 257.712 1503.05 258.624 1504.17 259.296C1505.29 259.968 1506.57 260.304 1508.01 260.304ZM1536.78 264.48C1535.05 264.48 1533.48 264.128 1532.07 263.424C1530.7 262.688 1529.59 261.68 1528.76 260.4C1527.93 259.12 1527.47 257.664 1527.37 256.032V249.168C1527.47 247.504 1527.93 246.048 1528.76 244.8C1529.63 243.52 1530.75 242.528 1532.12 241.824C1533.53 241.088 1535.08 240.72 1536.78 240.72C1538.86 240.72 1540.73 241.248 1542.39 242.304C1544.09 243.36 1545.42 244.784 1546.38 246.576C1547.34 248.368 1547.82 250.384 1547.82 252.624C1547.82 254.864 1547.34 256.88 1546.38 258.672C1545.42 260.464 1544.09 261.888 1542.39 262.944C1540.73 263.968 1538.86 264.48 1536.78 264.48ZM1524.78 273.552V241.2H1529.1V247.2L1528.28 252.72L1529.1 258.288V273.552H1524.78ZM1536.06 260.4C1537.5 260.4 1538.76 260.064 1539.85 259.392C1540.94 258.72 1541.8 257.808 1542.44 256.656C1543.08 255.472 1543.4 254.112 1543.4 252.576C1543.4 251.072 1543.08 249.728 1542.44 248.544C1541.8 247.36 1540.94 246.448 1539.85 245.808C1538.76 245.136 1537.51 244.8 1536.11 244.8C1534.67 244.8 1533.4 245.136 1532.31 245.808C1531.23 246.448 1530.38 247.36 1529.77 248.544C1529.16 249.728 1528.86 251.088 1528.86 252.624C1528.86 254.128 1529.15 255.472 1529.72 256.656C1530.33 257.808 1531.18 258.72 1532.27 259.392C1533.39 260.064 1534.65 260.4 1536.06 260.4ZM1563.13 264.48C1560.89 264.48 1558.87 263.952 1557.08 262.896C1555.29 261.84 1553.87 260.416 1552.81 258.624C1551.75 256.8 1551.23 254.768 1551.23 252.528C1551.23 250.32 1551.75 248.336 1552.81 246.576C1553.87 244.784 1555.29 243.36 1557.08 242.304C1558.87 241.248 1560.89 240.72 1563.13 240.72C1565.34 240.72 1567.34 241.248 1569.13 242.304C1570.95 243.328 1572.39 244.736 1573.45 246.528C1574.51 248.32 1575.03 250.32 1575.03 252.528C1575.03 254.768 1574.51 256.8 1573.45 258.624C1572.39 260.416 1570.95 261.84 1569.13 262.896C1567.34 263.952 1565.34 264.48 1563.13 264.48ZM1563.13 260.304C1564.57 260.304 1565.85 259.968 1566.97 259.296C1568.09 258.624 1568.97 257.712 1569.61 256.56C1570.25 255.376 1570.57 254.032 1570.57 252.528C1570.57 251.056 1570.23 249.744 1569.56 248.592C1568.92 247.44 1568.04 246.544 1566.92 245.904C1565.83 245.232 1564.57 244.896 1563.13 244.896C1561.69 244.896 1560.41 245.232 1559.29 245.904C1558.17 246.544 1557.29 247.44 1556.65 248.592C1556.01 249.744 1555.69 251.056 1555.69 252.528C1555.69 254.032 1556.01 255.376 1556.65 256.56C1557.29 257.712 1558.17 258.624 1559.29 259.296C1560.41 259.968 1561.69 260.304 1563.13 260.304ZM1579.9 264V241.2H1584.22V264H1579.9ZM1584.22 250.992L1582.59 250.272C1582.59 247.36 1583.26 245.04 1584.61 243.312C1585.95 241.584 1587.89 240.72 1590.41 240.72C1591.57 240.72 1592.61 240.928 1593.53 241.344C1594.46 241.728 1595.33 242.384 1596.13 243.312L1593.29 246.24C1592.81 245.728 1592.29 245.36 1591.71 245.136C1591.13 244.912 1590.46 244.8 1589.69 244.8C1588.09 244.8 1586.78 245.312 1585.76 246.336C1584.73 247.36 1584.22 248.912 1584.22 250.992ZM1608.34 264.48C1606.48 264.48 1604.8 264.064 1603.3 263.232C1601.82 262.368 1600.67 261.184 1599.84 259.68C1599.01 258.176 1598.59 256.432 1598.59 254.448V241.2H1602.91V254.256C1602.91 255.504 1603.12 256.592 1603.54 257.52C1603.98 258.416 1604.62 259.104 1605.46 259.584C1606.29 260.064 1607.26 260.304 1608.38 260.304C1610.08 260.304 1611.41 259.776 1612.37 258.72C1613.33 257.632 1613.81 256.144 1613.81 254.256V241.2H1618.13V254.448C1618.13 256.432 1617.71 258.176 1616.88 259.68C1616.05 261.184 1614.9 262.368 1613.42 263.232C1611.98 264.064 1610.29 264.48 1608.34 264.48ZM1634.33 264.48C1632.09 264.48 1630.06 263.952 1628.24 262.896C1626.45 261.84 1625.02 260.416 1623.97 258.624C1622.94 256.8 1622.43 254.784 1622.43 252.576C1622.43 250.336 1622.94 248.32 1623.97 246.528C1625.02 244.736 1626.45 243.328 1628.24 242.304C1630.06 241.248 1632.09 240.72 1634.33 240.72C1636.09 240.72 1637.73 241.056 1639.23 241.728C1640.73 242.368 1642.03 243.312 1643.12 244.56L1640.24 247.44C1639.53 246.608 1638.67 245.984 1637.65 245.568C1636.65 245.12 1635.55 244.896 1634.33 244.896C1632.89 244.896 1631.61 245.232 1630.49 245.904C1629.37 246.544 1628.49 247.44 1627.85 248.592C1627.21 249.744 1626.89 251.072 1626.89 252.576C1626.89 254.08 1627.21 255.408 1627.85 256.56C1628.49 257.712 1629.37 258.624 1630.49 259.296C1631.61 259.968 1632.89 260.304 1634.33 260.304C1635.55 260.304 1636.65 260.096 1637.65 259.68C1638.67 259.232 1639.55 258.592 1640.29 257.76L1643.12 260.64C1642.06 261.856 1640.77 262.8 1639.23 263.472C1637.73 264.144 1636.09 264.48 1634.33 264.48ZM1640.33 228.48L1642.25 230.448L1635.73 237.84H1632.37L1625.84 230.448L1627.81 228.48L1635.49 234.912L1632.61 234.864L1640.33 228.48ZM1657.49 264.48C1655.22 264.48 1653.17 263.968 1651.35 262.944C1649.53 261.888 1648.09 260.464 1647.03 258.672C1645.97 256.88 1645.45 254.848 1645.45 252.576C1645.45 250.336 1645.96 248.32 1646.98 246.528C1648.04 244.736 1649.45 243.328 1651.21 242.304C1653 241.248 1655 240.72 1657.21 240.72C1659.32 240.72 1661.17 241.2 1662.77 242.16C1664.41 243.12 1665.67 244.448 1666.57 246.144C1667.49 247.84 1667.96 249.76 1667.96 251.904C1667.96 252.224 1667.94 252.576 1667.91 252.96C1667.88 253.312 1667.81 253.728 1667.72 254.208H1648.47V250.608H1665.41L1663.83 252C1663.83 250.464 1663.56 249.168 1663.01 248.112C1662.47 247.024 1661.7 246.192 1660.71 245.616C1659.72 245.008 1658.52 244.704 1657.11 244.704C1655.64 244.704 1654.34 245.024 1653.22 245.664C1652.1 246.304 1651.24 247.2 1650.63 248.352C1650.02 249.504 1649.72 250.864 1649.72 252.432C1649.72 254.032 1650.04 255.44 1650.68 256.656C1651.32 257.84 1652.23 258.768 1653.41 259.44C1654.6 260.08 1655.96 260.4 1657.49 260.4C1658.77 260.4 1659.94 260.176 1661 259.728C1662.09 259.28 1663.01 258.608 1663.78 257.712L1666.57 260.544C1665.48 261.824 1664.13 262.8 1662.53 263.472C1660.97 264.144 1659.29 264.48 1657.49 264.48ZM1688.8 264V250.704C1688.8 248.976 1688.25 247.552 1687.16 246.432C1686.08 245.312 1684.67 244.752 1682.94 244.752C1681.79 244.752 1680.76 245.008 1679.87 245.52C1678.97 246.032 1678.27 246.736 1677.76 247.632C1677.24 248.528 1676.99 249.552 1676.99 250.704L1675.21 249.696C1675.21 247.968 1675.6 246.432 1676.36 245.088C1677.13 243.744 1678.2 242.688 1679.58 241.92C1680.96 241.12 1682.51 240.72 1684.24 240.72C1685.96 240.72 1687.48 241.152 1688.8 242.016C1690.14 242.88 1691.2 244.016 1691.96 245.424C1692.73 246.8 1693.12 248.272 1693.12 249.84V264H1688.8ZM1672.67 264V241.2H1676.99V264H1672.67ZM1698.96 264V241.2H1703.28V264H1698.96ZM1698.24 237.792L1696.28 235.824L1702.52 228.096L1705.92 231.504L1698.24 237.792Z" fill="white"/>
</svg>
